<svg width="28" height="27" viewBox="0 0 28 27" fill="none" xmlns="http://www.w3.org/2000/svg">
<g clip-path="url(#clip0_10_142)">
<path d="M27.727 13.811C27.727 12.8933 27.6499 11.9707 27.4852 11.0679H14.28V16.2665H21.842C21.5282 17.9431 20.52 19.4263 19.0436 20.3688V23.7419H23.555C26.2043 21.3907 27.727 17.9183 27.727 13.811Z" fill="#4285F4"/>
<path d="M14.28 27.001C18.0558 27.001 21.2401 25.8055 23.5602 23.7419L19.0487 20.3688C17.7935 21.1922 16.1731 21.6585 14.2851 21.6585C10.6327 21.6585 7.53591 19.2825 6.42476 16.0879H1.76924V19.5652C4.14587 24.1239 8.98658 27.001 14.28 27.001Z" fill="#34A853"/>
<path d="M6.41963 16.0878C5.83319 14.4112 5.83319 12.5956 6.41963 10.919V7.44165H1.76925C-0.216419 11.2563 -0.216419 15.7505 1.76925 19.5651L6.41963 16.0878Z" fill="#FBBC04"/>
<path d="M14.28 5.34337C16.2759 5.3136 18.205 6.03784 19.6506 7.36725L23.6476 3.51294C21.1167 1.22119 17.7575 -0.0387742 14.28 0.000909749C8.98658 0.000909749 4.14587 2.878 1.76924 7.44166L6.41961 10.919C7.52562 7.71945 10.6276 5.34337 14.28 5.34337Z" fill="#EA4335"/>
</g>
<defs>
<clipPath id="clip0_10_142">
<rect width="28" height="27" fill="white"/>
</clipPath>
</defs>
</svg>
