<svg width="31" height="31" viewBox="0 0 31 31" fill="none" xmlns="http://www.w3.org/2000/svg">
<g clip-path="url(#clip0_10_139)">
<path d="M31 15.5C31 6.93958 24.0604 0 15.5 0C6.93958 0 0 6.93958 0 15.5C0 23.2364 5.6681 29.6489 13.0781 30.8117V19.9805H9.14258V15.5H13.0781V12.0852C13.0781 8.20047 15.3922 6.05469 18.9327 6.05469C20.628 6.05469 22.4023 6.35742 22.4023 6.35742V10.1719H20.4479C18.5225 10.1719 17.9219 11.3668 17.9219 12.5938V15.5H22.2207L21.5335 19.9805H17.9219V30.8117C25.3319 29.6489 31 23.2364 31 15.5Z" fill="#1877F2"/>
<path d="M21.5335 19.9805L22.2207 15.5H17.9219V12.5938C17.9219 11.368 18.5225 10.1719 20.4479 10.1719H22.4023V6.35742C22.4023 6.35742 20.6286 6.05469 18.9327 6.05469C15.3922 6.05469 13.0781 8.20047 13.0781 12.0852V15.5H9.14258V19.9805H13.0781V30.8117C14.6829 31.0628 16.3171 31.0628 17.9219 30.8117V19.9805H21.5335Z" fill="white"/>
</g>
<defs>
<clipPath id="clip0_10_139">
<rect width="31" height="31" fill="white"/>
</clipPath>
</defs>
</svg>
