<svg width="30" height="29" viewBox="0 0 30 29" fill="none" xmlns="http://www.w3.org/2000/svg">
<g clip-path="url(#clip0_10_147)">
<path d="M27.24 22.6002C26.7863 23.6134 26.2492 24.546 25.627 25.4034C24.7789 26.5723 24.0845 27.3815 23.5493 27.8308C22.7197 28.5683 21.8309 28.946 20.879 28.9675C20.1957 28.9675 19.3717 28.7795 18.4125 28.3982C17.4501 28.0187 16.5657 27.8308 15.757 27.8308C14.9089 27.8308 13.9993 28.0187 13.0263 28.3982C12.0519 28.7795 11.2669 28.9782 10.6668 28.9979C9.75403 29.0355 8.84424 28.647 7.93612 27.8308C7.35651 27.3421 6.63153 26.5043 5.76304 25.3175C4.83122 24.0501 4.06514 22.5805 3.46497 20.905C2.82221 19.0952 2.5 17.3427 2.5 15.6461C2.5 13.7026 2.93443 12.0264 3.80459 10.6217C4.48845 9.49347 5.39824 8.60344 6.53691 7.95007C7.67558 7.29669 8.90591 6.96374 10.2309 6.94244C10.9558 6.94244 11.9066 7.15922 13.088 7.58525C14.2661 8.01272 15.0226 8.2295 15.3542 8.2295C15.6022 8.2295 16.4425 7.97602 17.8671 7.47069C19.2143 7.00205 20.3513 6.808 21.2827 6.88444C23.8067 7.08135 25.703 8.04315 26.964 9.77594C24.7067 11.0981 23.5901 12.9499 23.6123 15.3255C23.6327 17.1759 24.3271 18.7157 25.6919 19.9383C26.3103 20.5058 27.0011 20.9444 27.7696 21.2558C27.6029 21.723 27.427 22.1706 27.24 22.6002ZM21.4512 0.580531C21.4512 2.03086 20.9031 3.38503 19.8106 4.63844C18.4921 6.12849 16.8973 6.98952 15.1679 6.85365C15.1459 6.67966 15.1331 6.49653 15.1331 6.3041C15.1331 4.91178 15.7601 3.42173 16.8736 2.20341C17.4295 1.58655 18.1365 1.07364 18.9939 0.664485C19.8494 0.261433 20.6587 0.0385363 21.4198 0.000366211C21.442 0.194253 21.4512 0.388152 21.4512 0.580513V0.580531Z" fill="black"/>
</g>
<defs>
<clipPath id="clip0_10_147">
<rect width="30" height="29" fill="white"/>
</clipPath>
</defs>
</svg>
